<?xml version="1.0" encoding="utf-8"?>
<!-- Generator: Adobe Illustrator 16.0.0, SVG Export Plug-In . SVG Version: 6.00 Build 0)  -->
<!DOCTYPE svg PUBLIC "-//W3C//DTD SVG 1.1//EN" "http://www.w3.org/Graphics/SVG/1.1/DTD/svg11.dtd">
<svg version="1.1" id="Calque_1" xmlns="http://www.w3.org/2000/svg" xmlns:xlink="http://www.w3.org/1999/xlink" x="0px" y="0px"
	 width="17.916px" height="18.042px" viewBox="0 0 17.916 18.042" enable-background="new 0 0 17.916 18.042" xml:space="preserve">
<path fill="none" stroke="#FFFFFF" stroke-width="0.5" stroke-miterlimit="10" d="M14.269,7.302
	c1.377-0.005,2.498,0.754,2.506,1.695c0.007,0.942-1.104,1.709-2.481,1.715c-1.377,0.004-2.5-0.754-2.506-1.695
	C11.778,8.076,12.89,7.308,14.269,7.302z"/>
<g>
	<line fill="none" stroke="#FFFFFF" stroke-width="0.5" stroke-miterlimit="10" x1="0.857" y1="9.008" x2="16.774" y2="9.008"/>
</g>
<path fill="none" stroke="#FFFFFF" stroke-width="0.5" stroke-miterlimit="10" d="M3.482,7.302c1.377-0.005,2.499,0.754,2.506,1.695
	c0.006,0.942-1.104,1.709-2.482,1.715C2.129,10.716,1.007,9.958,1,9.018C0.993,8.077,2.104,7.308,3.482,7.302z"/>
<circle fill="#FFFFFF" cx="8.878" cy="9.009" r="1.573"/>
</svg>
