<svg xmlns="http://www.w3.org/2000/svg" xmlns:xlink="http://www.w3.org/1999/xlink" viewBox="0 0 15.508 16.263">
  <defs>
    <style>
      .cls-1 {
        clip-path: url(#clip-path);
      }
    </style>
    <clipPath id="clip-path">
      <path id="Tracé_104" data-name="Tracé 104" d="M0-513.024H15.508v16.263H0Z" transform="translate(0 513.024)"/>
    </clipPath>
  </defs>
  <g id="download" transform="translate(-1843.098 -238.971)">
    <g id="Groupe_227" data-name="Groupe 227" class="cls-1" transform="translate(1843.098 238.971)">
      <g id="Groupe_223" data-name="Groupe 223" transform="translate(0 14.559)">
        <path id="Tracé_100" data-name="Tracé 100" d="M-447.68-52.056h-13.8a.863.863,0,0,1-.852-.852.863.863,0,0,1,.852-.852h13.8a.863.863,0,0,1,.852.852.863.863,0,0,1-.852.852" transform="translate(462.336 53.76)"/>
      </g>
      <g id="Groupe_224" data-name="Groupe 224" transform="translate(6.914 0)">
        <path id="Tracé_101" data-name="Tracé 101" d="M-26.028-384.47a.863.863,0,0,1-.852-.852V-396.2a.863.863,0,0,1,.852-.852.863.863,0,0,1,.852.852v10.883a.863.863,0,0,1-.852.852" transform="translate(26.88 397.057)"/>
      </g>
      <g id="Groupe_225" data-name="Groupe 225" transform="translate(2.909 6.878)">
        <path id="Tracé_102" data-name="Tracé 102" d="M-148.359-174.387a.845.845,0,0,1-.609-.243l-3.993-4.017a.824.824,0,0,1,0-1.193.824.824,0,0,1,1.193,0l3.993,3.993a.824.824,0,0,1,0,1.193.7.7,0,0,1-.584.268" transform="translate(153.216 180.096)"/>
      </g>
      <g id="Groupe_226" data-name="Groupe 226" transform="translate(6.902 6.878)">
        <path id="Tracé_103" data-name="Tracé 103" d="M-26.4-174.387a.845.845,0,0,1-.609-.243.824.824,0,0,1,0-1.193l4.017-4.017a.824.824,0,0,1,1.193,0,.824.824,0,0,1,0,1.193l-3.993,4.017a.845.845,0,0,1-.609.243" transform="translate(27.264 180.096)"/>
      </g>
    </g>
  </g>
</svg>
