<svg xmlns="http://www.w3.org/2000/svg" xmlns:xlink="http://www.w3.org/1999/xlink" viewBox="0 0 42.828 42.828">
  <defs>
    <style>
      .cls-1 {
        fill: #2b2e34;
      }

      .cls-2 {
        clip-path: url(#clip-path);
      }
    </style>
    <clipPath id="clip-path">
      <path id="Tracé_97" data-name="Tracé 97" class="cls-1" d="M0-729.6H42.828v42.828H0Z" transform="translate(0 729.6)"/>
    </clipPath>
  </defs>
  <g id="left" transform="translate(-329.813 -516.559)">
    <g id="Groupe_217" data-name="Groupe 217" transform="translate(-356.959 516.559) rotate(90)">
      <g id="Groupe_215" data-name="Groupe 215" class="cls-2" transform="translate(0 -729.6)">
        <g id="Groupe_213" data-name="Groupe 213" transform="translate(0)">
          <path id="Tracé_95" data-name="Tracé 95" class="cls-1" d="M-343.386-49.158A18.365,18.365,0,0,1-325.037-30.81a18.365,18.365,0,0,1-18.348,18.348A18.394,18.394,0,0,1-361.734-30.81a18.394,18.394,0,0,1,18.348-18.348m0,39.763A21.433,21.433,0,0,0-321.972-30.81a21.433,21.433,0,0,0-21.414-21.414A21.433,21.433,0,0,0-364.8-30.81,21.433,21.433,0,0,0-343.386-9.4" transform="translate(364.8 52.224)"/>
        </g>
        <g id="Groupe_214" data-name="Groupe 214" transform="translate(11.688 16.635)">
          <path id="Tracé_96" data-name="Tracé 96" class="cls-1" d="M-138.619-174.223a1.574,1.574,0,0,0,1.082.451,1.574,1.574,0,0,0,1.082-.451l8.25-8.25a1.551,1.551,0,0,0,0-2.164,1.551,1.551,0,0,0-2.164,0l-7.168,7.123-7.123-7.123a1.465,1.465,0,0,0-1.082-.451,1.4,1.4,0,0,0-1.082.451,1.551,1.551,0,0,0,0,2.164Z" transform="translate(147.264 185.088)"/>
        </g>
      </g>
    </g>
  </g>
</svg>
