<?xml version="1.0" standalone="no"?>
<!DOCTYPE svg PUBLIC "-//W3C//DTD SVG 20010904//EN"
 "http://www.w3.org/TR/2001/REC-SVG-20010904/DTD/svg10.dtd">
<svg version="1.0" xmlns="http://www.w3.org/2000/svg"
 width="500.000000pt" height="500.000000pt" viewBox="0 0 500.000000 500.000000"
 preserveAspectRatio="xMidYMid meet">
<metadata>
Created by potrace 1.11, written by Peter Selinger 2001-2013
</metadata>
<g transform="translate(0.000000,500.000000) scale(0.100000,-0.100000)"
fill="#000000" stroke="none">
<path d="M0 2500 l0 -2500 2500 0 2500 0 0 2500 0 2500 -2500 0 -2500 0 0
-2500z m2282 1233 l177 -177 -77 -78 -76 -78 -103 102 -103 103 -128 -128
-127 -127 303 -303 c166 -166 302 -307 302 -312 0 -6 -33 -43 -73 -83 l-74
-73 -379 381 c-208 210 -381 384 -384 386 -4 5 551 564 560 564 3 0 84 -80
182 -177z m925 -105 l282 -283 -179 -179 -178 -179 -45 44 c-25 24 -59 61 -77
82 l-33 38 97 96 c53 53 96 99 96 102 0 4 -56 62 -125 131 l-125 125 -308
-308 -307 -307 -73 73 c-39 40 -72 77 -72 82 0 10 750 765 760 765 3 0 132
-127 287 -282z m-204 -616 l277 -277 -78 -78 -77 -77 -280 280 -280 280 75 75
c41 41 77 75 80 75 3 0 130 -125 283 -278z m-1430 -214 c31 -30 57 -59 57 -64
0 -5 -34 -43 -75 -84 l-75 -75 -102 103 -103 102 -127 -127 -128 -128 127
-127 128 -128 307 307 308 308 75 -75 c41 -41 75 -77 75 -81 0 -4 -172 -179
-381 -389 l-381 -383 -284 284 -284 284 282 282 282 282 121 -117 c66 -65 146
-143 178 -174z m2455 -555 l-283 -283 -180 180 -180 180 80 75 79 76 101 -101
100 -100 127 127 128 128 -127 127 -128 128 -307 -307 -308 -308 -77 78 -78
77 385 385 385 385 282 -282 283 -283 -282 -282z m-1438 202 l-280 -280 -75
75 c-41 41 -74 78 -73 82 2 5 127 132 278 283 l274 275 78 -77 78 -78 -280
-280z m-205 -608 c-39 -41 -74 -75 -80 -76 -12 -1 -555 540 -555 554 0 5 33
42 72 82 l73 73 279 -280 280 -279 -69 -74z m719 252 c207 -209 376 -384 374
-389 -6 -15 -545 -560 -554 -560 -5 0 -88 79 -184 175 l-175 175 78 77 77 78
100 -100 100 -100 125 125 c69 69 125 127 125 130 0 4 -107 114 -238 246 -131
131 -266 270 -302 307 l-64 68 74 74 c41 41 77 75 80 75 4 0 176 -171 384
-381z m-1064 -184 c0 -5 -44 -54 -97 -107 l-98 -98 128 -128 127 -127 308 308
307 307 78 -78 77 -77 -385 -385 -385 -385 -282 282 -283 283 180 180 180 180
72 -72 c40 -40 73 -77 73 -83z"/>
</g>
</svg>
