<?xml version="1.0" encoding="utf-8"?>
<!-- Generator: Adobe Illustrator 16.0.0, SVG Export Plug-In . SVG Version: 6.00 Build 0)  -->
<!DOCTYPE svg PUBLIC "-//W3C//DTD SVG 1.1//EN" "http://www.w3.org/Graphics/SVG/1.1/DTD/svg11.dtd">
<svg version="1.1" id="Calque_1" xmlns="http://www.w3.org/2000/svg" xmlns:xlink="http://www.w3.org/1999/xlink" x="0px" y="0px"
	 width="17.938px" height="18.062px" viewBox="0 0 17.938 18.062" enable-background="new 0 0 17.938 18.062" xml:space="preserve">
<g transform="translate(0,-952.36218)">
	<path fill="none" stroke="#FFFFFF" stroke-width="0.5" stroke-miterlimit="10" d="M15.747,961.886
		c-1.797,1.515-4.023,2.55-6.778,2.55c-2.753,0-5.195-0.774-6.777-2.55c0,0,0.271-5.313,9.402-1.497
		C14.156,961.461,16.656,960.983,15.747,961.886z M8.631,959.656c-1.325,0-2.407,1.082-2.407,2.406c0,1.325,1.082,2.407,2.407,2.407
		s2.405-1.082,2.405-2.407C11.035,960.738,9.955,959.656,8.631,959.656z M8.631,961.03c-0.568,0-1.033,0.465-1.033,1.032
		s0.465,1.032,1.033,1.032c0.565,0,1.032-0.465,1.032-1.032C9.662,961.495,9.197,961.03,8.631,961.03z"/>
</g>
</svg>
