<svg xmlns="http://www.w3.org/2000/svg" xmlns:xlink="http://www.w3.org/1999/xlink" viewBox="0 0 11.446 11.445">
  <defs>
    <style>
      .cls-1 {
        fill: none;
      }

      .cls-2 {
        clip-path: url(#clip-path);
      }
    </style>
    <clipPath id="clip-path">
      <path id="Tracé_2604" data-name="Tracé 2604" class="cls-1" d="M0-473.6H11.446v11.446H0Z" transform="translate(0 473.6)"/>
    </clipPath>
  </defs>
  <g id="Groupe_2787" data-name="Groupe 2787" transform="translate(0 473.6)">
    <g id="Groupe_2786" data-name="Groupe 2786" class="cls-2" transform="translate(0 -473.6)">
      <g id="Groupe_2785" data-name="Groupe 2785" transform="translate(0 0)">
        <path id="Tracé_2601" data-name="Tracé 2601" d="M-231.077-412.191a4.485,4.485,0,0,1-4.485-4.485,4.485,4.485,0,0,1,4.485-4.485,4.485,4.485,0,0,1,4.485,4.485,4.485,4.485,0,0,1-4.485,4.485m0-10.208a5.723,5.723,0,0,0-5.723,5.723,5.723,5.723,0,0,0,5.723,5.723,5.723,5.723,0,0,0,5.723-5.723,5.723,5.723,0,0,0-5.723-5.723" transform="translate(236.8 422.399)"/>
      </g>
      <path id="Tracé_2602" data-name="Tracé 2602" d="M166.4-329.152h1.237v4.464H166.4Z" transform="translate(-162.378 332.643)"/>
      <path id="Tracé_2603" data-name="Tracé 2603" d="M256-329.152h1.237v4.464H256Z" transform="translate(-249.813 332.643)"/>
    </g>
  </g>
</svg>
